<svg width="103" height="26" viewBox="0 0 103 26" fill="none" xmlns="http://www.w3.org/2000/svg">
<path d="M12.8644 2.15136C14.9833 2.15136 17.0545 2.77967 18.8163 3.95684C20.578 5.134 21.9511 6.80715 22.762 8.76471C23.5728 10.7223 23.785 12.8763 23.3716 14.9544C22.9583 17.0326 21.9379 18.9414 20.4397 20.4397C18.9414 21.9379 17.0326 22.9583 14.9544 23.3716C12.8763 23.785 10.7223 23.5728 8.76471 22.762C6.80716 21.9511 5.13401 20.578 3.95684 18.8163C2.77967 17.0545 2.15136 14.9833 2.15136 12.8644" stroke="#17411B" stroke-width="4.30273"/>
<path d="M12.8643 10.713C13.1468 10.713 13.4265 10.7687 13.6875 10.8768C13.9486 10.9849 14.1857 11.1434 14.3855 11.3432C14.5853 11.5429 14.7437 11.7801 14.8519 12.0411C14.96 12.3021 15.0156 12.5819 15.0156 12.8644C15.0156 13.1469 14.96 13.4267 14.8519 13.6877C14.7437 13.9487 14.5853 14.1859 14.3855 14.3856C14.1857 14.5854 13.9486 14.7439 13.6875 14.852C13.4265 14.9601 13.1468 15.0158 12.8643 15.0158C12.5817 15.0158 12.302 14.9601 12.041 14.852C11.7799 14.7439 11.5428 14.5854 11.343 14.3856C11.1432 14.1859 10.9848 13.9487 10.8767 13.6877C10.7685 13.4267 10.7129 13.1469 10.7129 12.8644C10.7129 12.5819 10.7685 12.3021 10.8767 12.0411C10.9848 11.7801 11.1432 11.5429 11.343 11.3432C11.5428 11.1434 11.7799 10.9849 12.041 10.8768C12.302 10.7687 12.5817 10.713 12.8643 10.713L12.8643 10.713Z" stroke="#1B562C" stroke-width="4.30273"/>
<path d="M43.9451 16.159L42.7515 16.4489V6.57689H47.0141V19.3644H41.5069L35.1643 9.50949L36.3578 9.21964V19.3644H32.0953V6.57689H37.7729L43.9451 16.159ZM55.848 6.57689C57.4052 6.57689 58.7635 6.844 59.9229 7.37824C61.0937 7.90111 62.003 8.63994 62.6509 9.59474C63.2988 10.5495 63.6228 11.6748 63.6228 12.9707C63.6228 14.2551 63.2988 15.3804 62.6509 16.3466C62.003 17.3014 61.0937 18.0459 59.9229 18.5801C58.7635 19.103 57.4052 19.3644 55.848 19.3644H49.0621V6.57689H55.848ZM53.4269 17.4037L51.4491 15.4429H56.189C56.8141 15.4429 57.3484 15.3463 57.7917 15.1531C58.2464 14.9485 58.593 14.6643 58.8317 14.3006C59.0704 13.9255 59.1898 13.4822 59.1898 12.9707C59.1898 12.4478 59.0704 12.0045 58.8317 11.6407C58.593 11.277 58.2464 10.9985 57.7917 10.8053C57.3484 10.6007 56.8141 10.4984 56.189 10.4984H51.4491L53.4269 8.53764V17.4037ZM81.2338 17.4207L79.955 17.4378L82.6489 6.57689H87.3036L83.706 19.3644H78.0454L74.7377 8.98094H76.4427L73.135 19.3644H67.4744L63.8768 6.57689H68.5485L71.2424 17.4207L69.9637 17.4037L73.2884 6.57689H77.892L81.2338 17.4207ZM87.6644 15.1531H92.1315C92.177 15.4031 92.3077 15.6191 92.5237 15.801C92.7397 15.9715 93.0352 16.1079 93.4103 16.2102C93.7854 16.3011 94.2344 16.3466 94.7572 16.3466C95.4392 16.3466 95.9678 16.2784 96.3429 16.142C96.7294 16.0056 96.9226 15.7839 96.9226 15.477C96.9226 15.2724 96.8146 15.1019 96.5987 14.9655C96.3827 14.8177 95.9394 14.7211 95.2687 14.6757L93.1545 14.5393C91.2336 14.4142 89.8468 14.005 88.9943 13.3117C88.1418 12.6183 87.7156 11.7033 87.7156 10.5666C87.7156 9.61179 87.9884 8.81613 88.534 8.17959C89.0796 7.54306 89.8412 7.06565 90.8187 6.74739C91.8076 6.42912 92.9613 6.26999 94.2798 6.26999C95.5643 6.26999 96.701 6.45185 97.6899 6.81559C98.6901 7.16795 99.4801 7.66809 100.06 8.31599C100.651 8.96389 100.975 9.71978 101.032 10.5836H96.5646C96.5305 10.379 96.4168 10.2029 96.2236 10.0551C96.0417 9.90733 95.7803 9.79366 95.4392 9.71409C95.0982 9.63453 94.6834 9.59474 94.1946 9.59474C93.5694 9.59474 93.075 9.65726 92.7112 9.78229C92.3589 9.90733 92.1827 10.1119 92.1827 10.3961C92.1827 10.5893 92.285 10.7541 92.4896 10.8905C92.7056 11.0269 93.1148 11.1179 93.7172 11.1633L96.1042 11.3168C97.3545 11.3964 98.3662 11.5839 99.1391 11.8794C99.912 12.1636 100.475 12.5615 100.827 13.073C101.191 13.5845 101.373 14.2153 101.373 14.9655C101.373 15.9089 101.094 16.733 100.537 17.4378C99.9802 18.1425 99.1959 18.6938 98.1843 19.0916C97.184 19.4781 96.0133 19.6713 94.672 19.6713C93.2853 19.6713 92.069 19.4838 91.0233 19.1087C89.9776 18.7336 89.1591 18.205 88.5681 17.523C87.9884 16.841 87.6872 16.051 87.6644 15.1531Z" fill="#17411B"/>
</svg>
